<svg viewBox="0 0 48 48" xmlns="http://www.w3.org/2000/svg"><path d="M24 13c-4.2-3.2-9.4-3.4-14.5-2.2v25.7c5.1-1.2 10.3-1 14.5 2.2 4.2-3.2 9.4-3.4 14.5-2.2V10.8C33.4 9.6 28.2 9.8 24 13z" fill="#cdeac0" stroke="#6b5b4f" stroke-width="2.5" stroke-linecap="round" stroke-linejoin="round"/><path d="M24 13v25.5" fill="none" stroke="#6b5b4f" stroke-width="2.5" stroke-linecap="round" stroke-linejoin="round"/><path d="M14.5 18c2.4-.5 4.8-.4 6.8.4M14.5 23.5c2.4-.5 4.8-.4 6.8.4" fill="none" stroke="#6b5b4f" stroke-width="2.5" stroke-linecap="round" stroke-linejoin="round"/><path d="M36 4.5l1 2.3 2.3 1-2.3 1-1 2.3-1-2.3-2.3-1 2.3-1z" fill="#ffe9b8" stroke="#6b5b4f" stroke-width="2.5" stroke-linecap="round" stroke-linejoin="round"/></svg>